<?xml version="1.0" standalone="no"?>
<!DOCTYPE svg PUBLIC "-//W3C//DTD SVG 20010904//EN"
 "http://www.w3.org/TR/2001/REC-SVG-20010904/DTD/svg10.dtd">
<svg version="1.0" xmlns="http://www.w3.org/2000/svg"
 width="500.000000pt" height="500.000000pt" viewBox="0 0 500.000000 500.000000"
 preserveAspectRatio="xMidYMid meet">
<metadata>
Created by potrace 1.11, written by Peter Selinger 2001-2013
</metadata>
<g transform="translate(0.000000,500.000000) scale(0.100000,-0.100000)"
fill="#000000" stroke="none">
<path d="M2732 4139 c-208 -27 -422 -116 -604 -249 -132 -97 -283 -271 -365
-418 -20 -37 -37 -68 -39 -70 -1 -2 -21 9 -44 23 -146 92 -318 124 -485 90
-183 -38 -339 -146 -440 -305 -63 -99 -88 -168 -110 -302 -6 -36 -10 -40 -98
-83 -252 -123 -431 -332 -514 -602 -25 -81 -27 -101 -27 -258 0 -156 3 -178
28 -260 35 -117 92 -232 160 -322 30 -39 52 -74 50 -77 -2 -3 -1 -4 2 -2 9 7
44 -27 44 -43 0 -8 3 -12 6 -8 3 3 30 -14 59 -38 78 -63 179 -121 272 -154
170 -63 61 -59 1898 -60 1617 -1 1683 0 1770 18 311 66 561 291 663 596 29 85
39 151 41 259 7 331 -167 625 -464 786 -69 37 -209 85 -275 95 l-45 7 -1 111
c-6 560 -407 1071 -960 1227 -157 45 -366 60 -522 39z m495 -900 c37 -14 83
-58 83 -80 0 -10 4 -19 10 -21 5 -1 12 -20 15 -41 5 -28 3 -37 -7 -35 -9 2
-14 -10 -16 -38 l-3 -41 93 -2 c51 -1 102 -3 113 -5 11 -3 50 -5 88 -5 l67 -1
0 -553 0 -552 -45 3 c-25 2 -53 1 -63 -4 -24 -10 -172 -15 -172 -5 0 4 -15 3
-34 -3 -34 -10 -54 -40 -35 -52 15 -9 31 -44 20 -44 -5 0 -11 8 -14 18 -2 9
-4 1 -4 -18 0 -19 2 -29 4 -22 7 19 19 14 20 -10 3 -28 -42 -102 -74 -123 -14
-9 -23 -13 -20 -8 4 5 0 10 -7 10 -8 0 -12 -6 -9 -14 3 -7 -1 -14 -8 -14 -60
-7 -79 -6 -79 2 0 6 -4 8 -9 4 -6 -3 -15 3 -21 12 -10 16 -11 16 -6 1 9 -30
-23 -9 -60 40 -18 25 -34 53 -34 63 0 10 -5 29 -11 43 -7 14 -8 33 -4 43 4 10
9 23 10 29 2 6 6 22 10 35 3 13 3 20 -2 14 -10 -13 -343 -14 -343 0 0 5 -5 4
-12 -3 -14 -14 -32 -16 -23 -2 3 5 0 7 -9 4 -11 -4 -17 4 -21 30 -9 43 -1 365
9 386 7 17 42 24 51 10 3 -4 15 -6 28 -3 12 3 19 2 15 -2 -10 -10 33 -32 77
-41 58 -10 103 4 151 48 40 37 44 45 44 87 0 57 -28 119 -70 155 -35 29 -102
50 -130 41 -11 -4 -33 -7 -50 -7 -16 -1 -27 -5 -25 -9 5 -7 -14 -16 -54 -24
-13 -2 -18 1 -15 10 3 7 1 28 -4 47 -5 18 -6 42 -2 53 4 11 3 28 -2 38 -5 10
-5 17 0 17 5 0 8 12 6 28 -5 35 -6 144 -2 162 2 8 15 28 30 45 l27 30 148 7
c81 3 149 7 149 7 6 4 17 44 21 81 7 69 48 136 97 159 73 34 76 34 113 20z"/>
<path d="M3311 3114 c0 -11 3 -14 6 -6 3 7 2 16 -1 19 -3 4 -6 -2 -5 -13z"/>
<path d="M2680 2570 c-13 -8 -12 -10 3 -10 9 0 17 5 17 10 0 12 -1 12 -20 0z"/>
<path d="M3306 1674 c-5 -14 -4 -15 9 -4 17 14 19 20 6 20 -5 0 -12 -7 -15
-16z"/>
</g>
</svg>
