<?xml version="1.0" encoding="UTF-8"?>
<svg xmlns="http://www.w3.org/2000/svg" xmlns:xlink="http://www.w3.org/1999/xlink" width="40pt" height="40pt" viewBox="0 0 40 40" version="1.1">
<g id="surface1">
<path style=" stroke:none;fill-rule:nonzero;fill:rgb(0%,0.392157%,0.392157%);fill-opacity:1;" d="M 10.582031 35.757812 C 10.046875 35.503906 9.550781 35.027344 9.367188 34.582031 C 9.234375 34.277344 9.214844 32.050781 9.214844 18.53125 C 9.214844 1.113281 9.15625 2.632812 9.894531 1.8125 L 10.25 1.417969 L 28.730469 1.417969 L 29.011719 1.640625 C 29.164062 1.761719 29.429688 2.066406 29.578125 2.320312 L 29.875 2.773438 L 29.875 12.132812 L 28.433594 12.183594 C 27.636719 12.210938 26.796875 12.242188 26.550781 12.253906 L 26.117188 12.261719 L 26.125 11.574219 C 26.148438 10.378906 26.136719 10.328125 25.800781 10.003906 C 25.628906 9.832031 25.367188 9.660156 25.214844 9.621094 C 24.882812 9.527344 24.140625 9.75 23.808594 10.054688 C 23.492188 10.339844 23.191406 11.007812 23.191406 11.414062 C 23.191406 11.917969 23.007812 12.222656 22.664062 12.292969 C 22.492188 12.324219 21.902344 12.355469 21.347656 12.355469 C 20.242188 12.355469 19.707031 12.507812 19.59375 12.851562 C 19.566406 12.972656 19.492188 13.042969 19.453125 13.023438 C 19.339844 12.953125 19.351562 16.121094 19.464844 16.335938 C 19.523438 16.457031 19.523438 16.566406 19.441406 16.660156 C 19.339844 16.769531 19.371094 16.789062 19.613281 16.75 C 19.988281 16.679688 20.160156 16.507812 19.847656 16.507812 C 19.714844 16.507812 19.636719 16.476562 19.664062 16.445312 C 19.777344 16.34375 20.101562 16.335938 20.234375 16.433594 C 20.3125 16.496094 20.355469 16.496094 20.355469 16.40625 C 20.355469 16.304688 20.515625 16.292969 21.03125 16.335938 C 21.792969 16.40625 22.390625 16.738281 22.601562 17.214844 C 22.671875 17.378906 22.753906 17.488281 22.785156 17.46875 C 22.816406 17.449219 22.855469 17.742188 22.867188 18.125 C 22.894531 18.816406 22.894531 18.824219 22.511719 19.191406 C 22.296875 19.390625 22.023438 19.605469 21.894531 19.65625 C 21.5 19.808594 20.882812 19.757812 20.386719 19.535156 C 20.132812 19.421875 19.867188 19.351562 19.789062 19.382812 C 19.707031 19.414062 19.644531 19.371094 19.644531 19.292969 C 19.644531 19.117188 19.554688 19.097656 19.363281 19.230469 C 19.140625 19.371094 19.039062 20.03125 19.039062 21.527344 C 19.039062 23.117188 19.089844 23.554688 19.3125 23.636719 C 19.390625 23.664062 19.433594 23.65625 19.402344 23.605469 C 19.371094 23.554688 19.453125 23.515625 19.59375 23.523438 C 19.738281 23.523438 19.828125 23.542969 19.808594 23.585938 C 19.789062 23.613281 20.535156 23.644531 21.476562 23.644531 C 22.449219 23.644531 23.191406 23.605469 23.191406 23.554688 C 23.191406 23.503906 23.210938 23.484375 23.242188 23.515625 C 23.269531 23.542969 23.25 23.6875 23.199219 23.839844 C 23.109375 24.050781 23.117188 24.101562 23.242188 24.101562 C 23.320312 24.101562 23.390625 24.152344 23.390625 24.203125 C 23.390625 24.261719 23.363281 24.292969 23.320312 24.292969 C 23.027344 24.242188 23.007812 24.3125 23.128906 24.851562 C 23.28125 25.488281 23.59375 26.035156 23.949219 26.269531 C 24.183594 26.421875 24.191406 26.421875 24.140625 26.257812 C 24.089844 26.105469 24.113281 26.105469 24.242188 26.269531 C 24.335938 26.378906 24.40625 26.441406 24.40625 26.398438 C 24.40625 26.359375 24.527344 26.378906 24.667969 26.429688 C 24.941406 26.53125 25.417969 26.472656 25.417969 26.328125 C 25.417969 26.277344 25.335938 26.21875 25.246094 26.1875 C 25.105469 26.148438 25.105469 26.148438 25.265625 26.15625 C 25.378906 26.167969 25.527344 26.136719 25.609375 26.085938 C 25.710938 26.015625 25.730469 26.035156 25.679688 26.136719 C 25.640625 26.21875 25.703125 26.167969 25.824219 26.023438 C 25.945312 25.882812 26.003906 25.84375 25.964844 25.925781 C 25.925781 26.015625 25.933594 26.046875 25.984375 25.996094 C 26.035156 25.945312 26.085938 25.824219 26.085938 25.710938 C 26.117188 25.355469 26.125 25.316406 26.238281 25.316406 C 26.320312 25.316406 26.308594 25.378906 26.21875 25.5 C 26.097656 25.660156 26.097656 25.660156 26.269531 25.507812 C 26.472656 25.328125 26.570312 24.707031 26.410156 24.707031 C 26.347656 24.707031 26.328125 24.769531 26.359375 24.839844 C 26.429688 25.011719 26.269531 25.285156 26.15625 25.183594 C 26.117188 25.132812 26.125 25.074219 26.175781 25.03125 C 26.289062 24.960938 26.308594 24.3125 26.207031 24.152344 C 26.136719 24.03125 26.257812 23.675781 26.359375 23.6875 C 26.398438 23.695312 26.570312 23.625 26.746094 23.542969 C 26.917969 23.453125 27.128906 23.402344 27.21875 23.421875 C 27.339844 23.453125 27.320312 23.472656 27.160156 23.484375 C 27.019531 23.492188 26.957031 23.535156 26.988281 23.605469 C 27.027344 23.664062 27.300781 23.695312 27.636719 23.6875 C 27.949219 23.664062 28.578125 23.664062 29.042969 23.675781 L 29.875 23.695312 L 29.875 28.953125 C 29.875 34.722656 29.882812 34.601562 29.253906 35.21875 C 29.074219 35.402344 28.738281 35.636719 28.507812 35.746094 C 28.101562 35.949219 27.878906 35.949219 19.535156 35.949219 C 11.402344 35.949219 10.96875 35.9375 10.582031 35.757812 Z M 22.257812 33.253906 C 22.550781 33.054688 22.5625 32.507812 22.269531 32.242188 C 22.066406 32.0625 21.875 32.050781 19.492188 32.050781 C 17.113281 32.050781 16.921875 32.0625 16.71875 32.242188 C 16.375 32.558594 16.476562 33.195312 16.910156 33.347656 C 16.992188 33.378906 18.175781 33.40625 19.542969 33.40625 C 21.640625 33.417969 22.066406 33.398438 22.257812 33.253906 Z M 22.257812 33.253906 "/>
<path style=" stroke:none;fill-rule:nonzero;fill:rgb(28.235294%,46.27451%,51.764706%);fill-opacity:1;" d="M 10.9375 18.125 L 10.9375 6.683594 L 19.574219 6.703125 L 28.203125 6.734375 L 28.234375 9.417969 C 28.253906 11.402344 28.292969 12.113281 28.386719 12.171875 C 28.445312 12.210938 27.96875 12.242188 27.3125 12.242188 L 26.117188 12.234375 L 26.125 11.554688 C 26.148438 10.378906 26.136719 10.328125 25.800781 10.003906 C 25.628906 9.832031 25.367188 9.660156 25.214844 9.621094 C 24.882812 9.527344 24.140625 9.75 23.808594 10.054688 C 23.492188 10.339844 23.191406 11.007812 23.191406 11.414062 C 23.191406 11.917969 23.007812 12.222656 22.664062 12.292969 C 22.492188 12.324219 21.902344 12.355469 21.347656 12.355469 C 20.242188 12.355469 19.707031 12.507812 19.59375 12.851562 C 19.566406 12.972656 19.492188 13.042969 19.453125 13.023438 C 19.339844 12.953125 19.351562 16.121094 19.464844 16.335938 C 19.523438 16.457031 19.523438 16.566406 19.441406 16.660156 C 19.339844 16.769531 19.371094 16.789062 19.613281 16.75 C 19.988281 16.679688 20.160156 16.507812 19.847656 16.507812 C 19.714844 16.507812 19.636719 16.476562 19.664062 16.445312 C 19.777344 16.34375 20.101562 16.335938 20.234375 16.433594 C 20.3125 16.496094 20.355469 16.496094 20.355469 16.40625 C 20.355469 16.304688 20.515625 16.292969 21.03125 16.335938 C 21.792969 16.40625 22.390625 16.738281 22.601562 17.214844 C 22.671875 17.378906 22.753906 17.488281 22.785156 17.46875 C 22.816406 17.449219 22.855469 17.742188 22.867188 18.125 C 22.894531 18.816406 22.894531 18.824219 22.511719 19.191406 C 22.296875 19.390625 22.023438 19.605469 21.894531 19.65625 C 21.5 19.808594 20.882812 19.757812 20.386719 19.535156 C 20.132812 19.421875 19.867188 19.351562 19.789062 19.382812 C 19.707031 19.414062 19.644531 19.371094 19.644531 19.292969 C 19.644531 19.117188 19.554688 19.097656 19.363281 19.230469 C 19.140625 19.371094 19.039062 20.03125 19.039062 21.527344 C 19.039062 23.117188 19.089844 23.554688 19.3125 23.636719 C 19.390625 23.664062 19.433594 23.65625 19.402344 23.605469 C 19.371094 23.554688 19.453125 23.523438 19.59375 23.523438 C 19.738281 23.523438 19.828125 23.542969 19.808594 23.585938 C 19.789062 23.613281 20.535156 23.644531 21.476562 23.644531 C 22.449219 23.644531 23.191406 23.605469 23.191406 23.554688 C 23.191406 23.503906 23.210938 23.484375 23.242188 23.515625 C 23.269531 23.542969 23.25 23.6875 23.199219 23.839844 C 23.109375 24.050781 23.117188 24.101562 23.242188 24.101562 C 23.320312 24.101562 23.390625 24.140625 23.390625 24.203125 C 23.390625 24.253906 23.363281 24.292969 23.320312 24.292969 C 23.027344 24.242188 23.007812 24.3125 23.128906 24.851562 C 23.28125 25.488281 23.59375 26.035156 23.949219 26.269531 C 24.183594 26.421875 24.191406 26.421875 24.140625 26.257812 C 24.089844 26.105469 24.113281 26.105469 24.242188 26.269531 C 24.335938 26.378906 24.40625 26.441406 24.40625 26.398438 C 24.40625 26.359375 24.527344 26.378906 24.667969 26.429688 C 24.941406 26.53125 25.417969 26.472656 25.417969 26.328125 C 25.417969 26.277344 25.335938 26.21875 25.246094 26.1875 C 25.105469 26.148438 25.105469 26.148438 25.265625 26.15625 C 25.378906 26.167969 25.527344 26.136719 25.609375 26.085938 C 25.710938 26.015625 25.730469 26.035156 25.679688 26.136719 C 25.640625 26.21875 25.703125 26.167969 25.824219 26.023438 C 25.945312 25.882812 26.003906 25.84375 25.964844 25.925781 C 25.925781 26.015625 25.933594 26.046875 25.984375 25.996094 C 26.035156 25.945312 26.085938 25.824219 26.085938 25.710938 C 26.117188 25.355469 26.125 25.316406 26.238281 25.316406 C 26.320312 25.316406 26.308594 25.378906 26.21875 25.5 C 26.097656 25.660156 26.097656 25.660156 26.269531 25.507812 C 26.472656 25.328125 26.570312 24.707031 26.410156 24.707031 C 26.347656 24.707031 26.328125 24.769531 26.359375 24.839844 C 26.429688 25.011719 26.269531 25.285156 26.15625 25.183594 C 26.117188 25.132812 26.125 25.074219 26.175781 25.03125 C 26.289062 24.960938 26.308594 24.3125 26.207031 24.152344 C 26.136719 24.03125 26.257812 23.675781 26.359375 23.6875 C 26.398438 23.695312 26.570312 23.625 26.746094 23.542969 C 26.917969 23.453125 27.128906 23.402344 27.21875 23.421875 C 27.339844 23.453125 27.320312 23.472656 27.160156 23.484375 C 27.019531 23.492188 26.945312 23.535156 26.996094 23.605469 C 27.039062 23.6875 27.261719 23.695312 27.65625 23.65625 L 28.253906 23.585938 L 28.253906 29.570312 L 10.9375 29.570312 Z M 10.9375 18.125 "/>
<path style=" stroke:none;fill-rule:nonzero;fill:rgb(53.72549%,51.764706%,41.960784%);fill-opacity:1;" d="M 24.324219 26.472656 C 24.203125 26.390625 24.101562 26.257812 24.101562 26.199219 C 24.113281 26.117188 24.152344 26.125 24.234375 26.226562 C 24.363281 26.398438 24.527344 26.449219 24.933594 26.472656 C 25.074219 26.472656 25.175781 26.511719 25.144531 26.5625 C 25.0625 26.695312 24.558594 26.644531 24.324219 26.472656 Z M 24.324219 26.472656 "/>
<path style=" stroke:none;fill-rule:nonzero;fill:rgb(53.72549%,51.764706%,41.960784%);fill-opacity:1;" d="M 25.265625 26.21875 L 25.0625 26.125 L 25.265625 26.148438 C 25.378906 26.167969 25.527344 26.136719 25.589844 26.097656 C 25.679688 26.035156 25.703125 26.066406 25.660156 26.167969 C 25.589844 26.347656 25.550781 26.347656 25.265625 26.21875 Z M 25.265625 26.21875 "/>
<path style=" stroke:none;fill-rule:nonzero;fill:rgb(53.72549%,51.764706%,41.960784%);fill-opacity:1;" d="M 17.761719 26.003906 C 17.660156 25.945312 17.46875 25.800781 17.347656 25.691406 C 17.132812 25.5 17.113281 25.398438 17.113281 24.292969 C 17.113281 22.9375 17.0625 22.835938 16.425781 22.925781 C 16.082031 22.96875 15.980469 22.9375 15.65625 22.644531 C 15.382812 22.378906 15.292969 22.21875 15.292969 21.964844 C 15.292969 21.773438 15.292969 20.253906 15.300781 18.582031 C 15.3125 16.910156 15.3125 15.433594 15.300781 15.292969 C 15.21875 13.976562 15.433594 13.335938 16.253906 12.507812 C 16.585938 12.171875 16.972656 11.816406 17.113281 11.726562 L 17.367188 11.566406 L 17.0625 10.996094 C 16.851562 10.582031 16.800781 10.398438 16.882812 10.320312 C 17.042969 10.15625 17.183594 10.277344 17.46875 10.835938 C 17.609375 11.109375 17.75 11.351562 17.792969 11.371094 C 17.84375 11.402344 18.125 11.363281 18.429688 11.28125 C 19.117188 11.097656 20.234375 11.109375 20.980469 11.28125 L 21.558594 11.421875 L 21.824219 10.96875 C 21.964844 10.714844 22.074219 10.472656 22.074219 10.429688 C 22.074219 10.289062 22.410156 10.21875 22.523438 10.328125 C 22.59375 10.398438 22.59375 10.492188 22.5 10.613281 C 22.441406 10.703125 22.289062 10.957031 22.167969 11.179688 C 21.925781 11.625 21.964844 11.6875 22.613281 12.03125 L 22.988281 12.222656 L 22.671875 12.292969 C 22.5 12.324219 21.902344 12.355469 21.347656 12.355469 C 20.242188 12.355469 19.707031 12.507812 19.59375 12.851562 C 19.566406 12.972656 19.492188 13.042969 19.453125 13.023438 C 19.339844 12.953125 19.351562 16.121094 19.464844 16.335938 C 19.523438 16.457031 19.523438 16.566406 19.441406 16.660156 C 19.339844 16.769531 19.371094 16.789062 19.613281 16.75 C 19.988281 16.679688 20.160156 16.507812 19.847656 16.507812 C 19.714844 16.507812 19.636719 16.476562 19.664062 16.445312 C 19.777344 16.34375 20.101562 16.335938 20.234375 16.433594 C 20.3125 16.496094 20.355469 16.496094 20.355469 16.40625 C 20.355469 16.304688 20.515625 16.292969 21.03125 16.335938 C 21.792969 16.40625 22.390625 16.738281 22.601562 17.214844 C 22.671875 17.378906 22.753906 17.488281 22.785156 17.46875 C 22.816406 17.449219 22.855469 17.742188 22.867188 18.125 C 22.894531 18.816406 22.894531 18.824219 22.511719 19.191406 C 22.296875 19.390625 22.023438 19.605469 21.894531 19.65625 C 21.5 19.808594 20.882812 19.757812 20.386719 19.535156 C 20.132812 19.421875 19.867188 19.351562 19.789062 19.382812 C 19.707031 19.414062 19.644531 19.371094 19.644531 19.292969 C 19.644531 19.058594 19.363281 19.109375 19.21875 19.371094 C 19.117188 19.535156 19.089844 20.335938 19.078125 22.472656 C 19.058594 25.550781 19.027344 25.730469 18.542969 25.902344 C 18.035156 26.097656 17.964844 26.105469 17.761719 26.003906 Z M 18.59375 15.3125 C 18.511719 15.179688 16.335938 15.160156 16.253906 15.292969 C 16.210938 15.363281 16.597656 15.390625 17.417969 15.390625 C 18.097656 15.390625 18.621094 15.351562 18.59375 15.3125 Z M 18.023438 13.226562 C 18.023438 13.054688 17.773438 12.953125 17.570312 13.023438 C 17.386719 13.09375 17.378906 13.285156 17.539062 13.449219 C 17.679688 13.589844 18.023438 13.429688 18.023438 13.226562 Z M 18.023438 13.226562 "/>
<path style=" stroke:none;fill-rule:nonzero;fill:rgb(53.72549%,51.764706%,41.960784%);fill-opacity:1;" d="M 25.824219 26.054688 C 25.824219 25.996094 25.894531 25.894531 25.976562 25.824219 C 26.054688 25.761719 26.117188 25.671875 26.105469 25.640625 C 26.085938 25.457031 26.136719 25.316406 26.21875 25.316406 C 26.269531 25.316406 26.296875 25.378906 26.289062 25.449219 C 26.269531 25.621094 25.824219 26.1875 25.824219 26.054688 Z M 25.824219 26.054688 "/>
<path style=" stroke:none;fill-rule:nonzero;fill:rgb(53.72549%,51.764706%,41.960784%);fill-opacity:1;" d="M 20.75 25.792969 C 20.40625 25.558594 20.40625 25.558594 20.355469 24.585938 L 20.304688 23.613281 L 21.519531 23.613281 C 22.1875 23.625 22.652344 23.644531 22.5625 23.664062 C 22.410156 23.707031 22.378906 23.828125 22.378906 24.394531 C 22.378906 25.265625 22.238281 25.691406 21.863281 25.875 C 21.46875 26.085938 21.144531 26.066406 20.75 25.792969 Z M 20.75 25.792969 "/>
<path style=" stroke:none;fill-rule:nonzero;fill:rgb(53.72549%,51.764706%,41.960784%);fill-opacity:1;" d="M 26.125 25.113281 C 26.125 25.0625 26.15625 25.011719 26.207031 25.011719 C 26.289062 25.011719 26.289062 24.292969 26.207031 24.140625 C 26.148438 24.039062 26.289062 23.59375 26.378906 23.59375 C 26.421875 23.59375 26.410156 23.644531 26.378906 23.707031 C 26.339844 23.757812 26.371094 23.949219 26.441406 24.121094 C 26.542969 24.363281 26.542969 24.433594 26.429688 24.507812 C 26.328125 24.566406 26.347656 24.597656 26.492188 24.636719 C 26.652344 24.679688 26.664062 24.6875 26.511719 24.699219 C 26.410156 24.699219 26.328125 24.757812 26.328125 24.820312 C 26.328125 24.871094 26.371094 24.902344 26.410156 24.871094 C 26.460938 24.839844 26.5 24.882812 26.5 24.960938 C 26.5 25.042969 26.460938 25.082031 26.410156 25.054688 C 26.371094 25.023438 26.328125 25.054688 26.328125 25.105469 C 26.328125 25.164062 26.289062 25.214844 26.226562 25.214844 C 26.175781 25.214844 26.125 25.175781 26.125 25.113281 Z M 26.125 25.113281 "/>
<path style=" stroke:none;fill-rule:nonzero;fill:rgb(53.72549%,51.764706%,41.960784%);fill-opacity:1;" d="M 23.019531 24.941406 C 22.867188 24.890625 22.84375 24.546875 22.976562 24.464844 C 23.027344 24.433594 23.089844 24.546875 23.109375 24.707031 C 23.140625 24.882812 23.148438 25.011719 23.148438 25.003906 C 23.140625 25.003906 23.078125 24.972656 23.019531 24.941406 Z M 23.019531 24.941406 "/>
<path style=" stroke:none;fill-rule:nonzero;fill:rgb(53.72549%,51.764706%,41.960784%);fill-opacity:1;" d="M 23.039062 24.191406 C 23.109375 24.082031 23.390625 24.070312 23.390625 24.183594 C 23.390625 24.222656 23.300781 24.261719 23.191406 24.273438 C 23.078125 24.285156 23.007812 24.253906 23.039062 24.191406 Z M 23.039062 24.191406 "/>
<path style=" stroke:none;fill-rule:nonzero;fill:rgb(53.72549%,51.764706%,41.960784%);fill-opacity:1;" d="M 26.765625 23.535156 C 26.925781 23.453125 27.128906 23.402344 27.21875 23.421875 C 27.339844 23.453125 27.320312 23.472656 27.160156 23.484375 C 27.027344 23.484375 26.957031 23.542969 26.988281 23.59375 C 27.027344 23.65625 26.925781 23.695312 26.765625 23.695312 L 26.480469 23.6875 Z M 26.765625 23.535156 "/>
<path style=" stroke:none;fill-rule:nonzero;fill:rgb(53.72549%,51.764706%,41.960784%);fill-opacity:1;" d="M 13.398438 21.183594 C 13.054688 20.910156 12.960938 20.324219 12.960938 18.296875 C 12.960938 16.019531 13.042969 15.574219 13.519531 15.351562 C 13.703125 15.261719 13.902344 15.191406 13.964844 15.191406 C 14.1875 15.191406 14.867188 15.585938 14.925781 15.746094 C 15.046875 16.082031 14.988281 20.800781 14.855469 20.972656 C 14.542969 21.386719 13.78125 21.5 13.398438 21.183594 Z M 13.398438 21.183594 "/>
<path style=" stroke:none;fill-rule:nonzero;fill:rgb(53.72549%,51.764706%,41.960784%);fill-opacity:1;" d="M 26.257812 12.183594 C 26.347656 12.160156 26.511719 12.160156 26.613281 12.183594 C 26.703125 12.210938 26.621094 12.234375 26.429688 12.234375 C 26.238281 12.234375 26.15625 12.210938 26.257812 12.183594 Z M 26.257812 12.183594 "/>
<path style=" stroke:none;fill-rule:nonzero;fill:rgb(53.72549%,51.764706%,41.960784%);fill-opacity:1;" d="M 27.117188 12.183594 C 27.242188 12.160156 27.441406 12.160156 27.574219 12.183594 C 27.695312 12.203125 27.59375 12.222656 27.339844 12.222656 C 27.089844 12.222656 26.988281 12.203125 27.117188 12.183594 Z M 27.117188 12.183594 "/>
<path style=" stroke:none;fill-rule:nonzero;fill:rgb(53.72549%,51.764706%,41.960784%);fill-opacity:1;" d="M 27.980469 12.183594 C 28.070312 12.160156 28.234375 12.160156 28.335938 12.183594 C 28.425781 12.210938 28.34375 12.234375 28.152344 12.234375 C 27.960938 12.234375 27.878906 12.210938 27.980469 12.183594 Z M 27.980469 12.183594 "/>
<path style=" stroke:none;fill-rule:nonzero;fill:rgb(53.72549%,51.764706%,41.960784%);fill-opacity:1;" d="M 22.90625 11.726562 C 22.765625 11.191406 22.867188 10.421875 23.097656 10.359375 C 23.199219 10.328125 23.3125 10.21875 23.339844 10.117188 C 23.382812 10.015625 23.441406 9.925781 23.484375 9.925781 C 23.535156 9.925781 23.738281 9.792969 23.949219 9.621094 C 24.394531 9.265625 24.628906 9.246094 25.234375 9.507812 C 25.671875 9.691406 26.054688 10.023438 25.84375 10.023438 C 25.78125 10.023438 25.691406 9.953125 25.652344 9.875 C 25.417969 9.457031 24.355469 9.570312 23.808594 10.054688 C 23.484375 10.347656 23.199219 11.007812 23.191406 11.441406 C 23.179688 12 23.027344 12.152344 22.90625 11.726562 Z M 22.90625 11.726562 "/>
<path style=" stroke:none;fill-rule:nonzero;fill:rgb(53.72549%,51.764706%,41.960784%);fill-opacity:1;" d="M 26.175781 11.523438 C 26.207031 11.3125 26.1875 11.046875 26.125 10.9375 C 26.046875 10.796875 26.046875 10.683594 26.125 10.550781 C 26.207031 10.421875 26.226562 10.421875 26.21875 10.53125 C 26.1875 10.855469 26.226562 11.046875 26.328125 10.988281 C 26.441406 10.917969 26.347656 11.515625 26.207031 11.746094 C 26.148438 11.847656 26.136719 11.765625 26.175781 11.523438 Z M 26.175781 11.523438 "/>
<path style=" stroke:none;fill-rule:nonzero;fill:rgb(61.960784%,62.352941%,59.607843%);fill-opacity:1;" d="M 24.324219 26.472656 C 24.203125 26.390625 24.101562 26.257812 24.101562 26.199219 C 24.113281 26.117188 24.152344 26.125 24.234375 26.226562 C 24.363281 26.398438 24.527344 26.449219 24.933594 26.472656 C 25.074219 26.472656 25.175781 26.511719 25.144531 26.5625 C 25.0625 26.695312 24.558594 26.644531 24.324219 26.472656 Z M 24.324219 26.472656 "/>
<path style=" stroke:none;fill-rule:nonzero;fill:rgb(61.960784%,62.352941%,59.607843%);fill-opacity:1;" d="M 25.265625 26.21875 L 25.0625 26.125 L 25.265625 26.148438 C 25.378906 26.167969 25.527344 26.136719 25.589844 26.097656 C 25.679688 26.035156 25.703125 26.066406 25.660156 26.167969 C 25.589844 26.347656 25.550781 26.347656 25.265625 26.21875 Z M 25.265625 26.21875 "/>
<path style=" stroke:none;fill-rule:nonzero;fill:rgb(61.960784%,62.352941%,59.607843%);fill-opacity:1;" d="M 25.824219 26.054688 C 25.824219 25.996094 25.894531 25.894531 25.976562 25.824219 C 26.054688 25.761719 26.117188 25.671875 26.105469 25.640625 C 26.085938 25.457031 26.136719 25.316406 26.21875 25.316406 C 26.269531 25.316406 26.296875 25.378906 26.289062 25.449219 C 26.269531 25.621094 25.824219 26.1875 25.824219 26.054688 Z M 25.824219 26.054688 "/>
<path style=" stroke:none;fill-rule:nonzero;fill:rgb(61.960784%,62.352941%,59.607843%);fill-opacity:1;" d="M 17.660156 25.933594 C 17.214844 25.742188 17.113281 25.40625 17.113281 24.082031 L 17.113281 22.835938 L 16.566406 22.867188 C 16.0625 22.894531 16 22.875 15.65625 22.550781 L 15.292969 22.1875 L 15.3125 18.816406 L 15.339844 15.441406 L 17.144531 15.414062 L 18.9375 15.390625 L 18.9375 16.03125 C 18.9375 16.71875 19.109375 17.011719 19.503906 17.011719 C 19.675781 17.003906 19.664062 16.980469 19.421875 16.78125 C 19.191406 16.585938 19.160156 16.484375 19.167969 15.96875 C 19.179688 15.65625 19.167969 15.390625 19.140625 15.390625 C 19.109375 15.390625 19.109375 14.855469 19.117188 14.207031 C 19.148438 13.226562 19.191406 12.953125 19.363281 12.6875 C 19.472656 12.507812 19.566406 12.34375 19.574219 12.34375 C 19.585938 12.335938 20.210938 12.292969 20.960938 12.253906 L 22.328125 12.191406 L 20.851562 12.171875 C 18.875 12.140625 18.9375 12.089844 18.9375 13.875 L 18.9375 15.191406 L 15.292969 15.191406 L 15.292969 14.683594 C 15.292969 14.25 15.523438 13.40625 15.6875 13.265625 C 15.714844 13.234375 15.816406 13.082031 15.898438 12.921875 C 16.0625 12.609375 17.082031 11.746094 17.296875 11.746094 C 17.46875 11.746094 17.457031 11.695312 17.09375 11.027344 C 16.871094 10.59375 16.808594 10.390625 16.890625 10.308594 C 17.042969 10.15625 17.125 10.238281 17.457031 10.875 L 17.75 11.441406 L 18.167969 11.371094 C 18.398438 11.339844 18.683594 11.269531 18.816406 11.230469 C 19.117188 11.109375 20.210938 11.117188 20.660156 11.230469 C 21.609375 11.472656 21.539062 11.492188 21.882812 10.886719 C 22.226562 10.269531 22.347656 10.15625 22.5 10.308594 C 22.570312 10.378906 22.492188 10.601562 22.25 11.007812 L 21.902344 11.613281 L 22.117188 11.746094 C 22.226562 11.828125 22.492188 11.980469 22.683594 12.082031 C 23.007812 12.261719 23.019531 12.273438 22.753906 12.210938 C 22.5625 12.160156 22.492188 12.183594 22.53125 12.253906 C 22.570312 12.324219 22.226562 12.355469 21.46875 12.355469 C 20.242188 12.355469 19.707031 12.496094 19.59375 12.851562 C 19.566406 12.972656 19.492188 13.042969 19.453125 13.023438 C 19.371094 12.972656 19.390625 16.0625 19.472656 16.507812 C 19.503906 16.6875 19.566406 16.75 19.707031 16.730469 C 20.011719 16.667969 20.121094 16.507812 19.847656 16.507812 C 19.714844 16.507812 19.636719 16.476562 19.664062 16.445312 C 19.777344 16.34375 20.101562 16.335938 20.234375 16.433594 C 20.3125 16.496094 20.355469 16.496094 20.355469 16.40625 C 20.355469 16.304688 20.515625 16.292969 21.03125 16.335938 C 21.792969 16.40625 22.390625 16.738281 22.601562 17.214844 C 22.671875 17.378906 22.753906 17.488281 22.785156 17.46875 C 22.816406 17.449219 22.855469 17.742188 22.867188 18.125 C 22.894531 18.816406 22.894531 18.824219 22.511719 19.191406 C 22.296875 19.390625 22.023438 19.605469 21.894531 19.65625 C 21.5 19.808594 20.882812 19.757812 20.386719 19.535156 C 20.132812 19.421875 19.867188 19.351562 19.789062 19.382812 C 19.707031 19.414062 19.644531 19.390625 19.644531 19.339844 C 19.644531 19.28125 19.726562 19.242188 19.828125 19.242188 C 19.980469 19.230469 19.980469 19.21875 19.808594 19.089844 C 19.542969 18.894531 19.292969 18.894531 19.097656 19.097656 C 18.957031 19.230469 18.9375 19.566406 18.945312 21.246094 C 18.945312 22.339844 18.988281 23.492188 19.019531 23.796875 C 19.191406 25.183594 18.9375 25.882812 18.226562 25.976562 C 18.035156 26.003906 17.78125 25.984375 17.660156 25.933594 Z M 22.097656 19.199219 C 22.480469 18.835938 22.632812 18.398438 22.550781 17.863281 C 22.523438 17.652344 22.511719 17.703125 22.492188 18.023438 C 22.472656 18.652344 21.945312 19.371094 21.417969 19.472656 C 21.253906 19.503906 21.265625 19.523438 21.46875 19.535156 C 21.640625 19.542969 21.863281 19.421875 22.097656 19.199219 Z M 17.976562 13.367188 C 18.054688 13.113281 17.964844 12.960938 17.730469 12.960938 C 17.457031 12.960938 17.304688 13.164062 17.429688 13.386719 C 17.558594 13.628906 17.894531 13.621094 17.976562 13.367188 Z M 17.976562 13.367188 "/>
<path style=" stroke:none;fill-rule:nonzero;fill:rgb(61.960784%,62.352941%,59.607843%);fill-opacity:1;" d="M 20.910156 25.914062 C 20.535156 25.730469 20.40625 25.398438 20.355469 24.484375 L 20.304688 23.613281 L 21.519531 23.613281 C 22.1875 23.625 22.652344 23.644531 22.5625 23.664062 C 22.410156 23.707031 22.378906 23.816406 22.378906 24.285156 C 22.378906 24.992188 22.238281 25.539062 21.984375 25.761719 C 21.75 25.976562 21.183594 26.054688 20.910156 25.914062 Z M 20.910156 25.914062 "/>
<path style=" stroke:none;fill-rule:nonzero;fill:rgb(61.960784%,62.352941%,59.607843%);fill-opacity:1;" d="M 26.125 25.113281 C 26.125 25.0625 26.15625 25.011719 26.207031 25.011719 C 26.289062 25.011719 26.289062 24.292969 26.207031 24.140625 C 26.148438 24.039062 26.289062 23.59375 26.378906 23.59375 C 26.421875 23.59375 26.410156 23.644531 26.378906 23.707031 C 26.339844 23.757812 26.371094 23.949219 26.441406 24.121094 C 26.542969 24.363281 26.542969 24.433594 26.429688 24.507812 C 26.328125 24.566406 26.347656 24.597656 26.492188 24.636719 C 26.652344 24.679688 26.664062 24.6875 26.511719 24.699219 C 26.410156 24.699219 26.328125 24.757812 26.328125 24.820312 C 26.328125 24.871094 26.371094 24.902344 26.410156 24.871094 C 26.460938 24.839844 26.5 24.882812 26.5 24.960938 C 26.5 25.042969 26.460938 25.082031 26.410156 25.054688 C 26.371094 25.023438 26.328125 25.054688 26.328125 25.105469 C 26.328125 25.164062 26.289062 25.214844 26.226562 25.214844 C 26.175781 25.214844 26.125 25.175781 26.125 25.113281 Z M 26.125 25.113281 "/>
<path style=" stroke:none;fill-rule:nonzero;fill:rgb(61.960784%,62.352941%,59.607843%);fill-opacity:1;" d="M 23.039062 24.191406 C 23.109375 24.082031 23.390625 24.070312 23.390625 24.183594 C 23.390625 24.222656 23.300781 24.261719 23.191406 24.273438 C 23.078125 24.285156 23.007812 24.253906 23.039062 24.191406 Z M 23.039062 24.191406 "/>
<path style=" stroke:none;fill-rule:nonzero;fill:rgb(61.960784%,62.352941%,59.607843%);fill-opacity:1;" d="M 26.765625 23.535156 C 26.925781 23.453125 27.128906 23.402344 27.21875 23.421875 C 27.339844 23.453125 27.320312 23.472656 27.160156 23.484375 C 27.027344 23.484375 26.957031 23.542969 26.988281 23.59375 C 27.027344 23.65625 26.925781 23.695312 26.765625 23.695312 L 26.480469 23.6875 Z M 26.765625 23.535156 "/>
<path style=" stroke:none;fill-rule:nonzero;fill:rgb(61.960784%,62.352941%,59.607843%);fill-opacity:1;" d="M 13.367188 21.0625 C 12.980469 20.667969 12.933594 20.304688 12.980469 17.902344 C 13.011719 15.960938 13.011719 15.929688 13.265625 15.65625 C 13.640625 15.25 13.925781 15.167969 14.320312 15.332031 C 14.96875 15.605469 14.988281 15.675781 14.988281 18.339844 L 14.988281 20.738281 L 14.671875 21.054688 C 14.25 21.476562 13.773438 21.476562 13.367188 21.0625 Z M 13.367188 21.0625 "/>
<path style=" stroke:none;fill-rule:nonzero;fill:rgb(61.960784%,62.352941%,59.607843%);fill-opacity:1;" d="M 26.257812 12.183594 C 26.347656 12.160156 26.511719 12.160156 26.613281 12.183594 C 26.703125 12.210938 26.621094 12.234375 26.429688 12.234375 C 26.238281 12.234375 26.15625 12.210938 26.257812 12.183594 Z M 26.257812 12.183594 "/>
<path style=" stroke:none;fill-rule:nonzero;fill:rgb(61.960784%,62.352941%,59.607843%);fill-opacity:1;" d="M 27.117188 12.183594 C 27.242188 12.160156 27.441406 12.160156 27.574219 12.183594 C 27.695312 12.203125 27.59375 12.222656 27.339844 12.222656 C 27.089844 12.222656 26.988281 12.203125 27.117188 12.183594 Z M 27.117188 12.183594 "/>
<path style=" stroke:none;fill-rule:nonzero;fill:rgb(61.960784%,62.352941%,59.607843%);fill-opacity:1;" d="M 27.980469 12.183594 C 28.070312 12.160156 28.234375 12.160156 28.335938 12.183594 C 28.425781 12.210938 28.34375 12.234375 28.152344 12.234375 C 27.960938 12.234375 27.878906 12.210938 27.980469 12.183594 Z M 27.980469 12.183594 "/>
<path style=" stroke:none;fill-rule:nonzero;fill:rgb(61.960784%,62.352941%,59.607843%);fill-opacity:1;" d="M 22.957031 11.910156 C 22.917969 11.816406 22.9375 11.484375 22.996094 11.167969 C 23.128906 10.460938 23.625 9.800781 24.253906 9.5 C 24.667969 9.296875 24.699219 9.296875 25.144531 9.46875 C 25.589844 9.640625 26.074219 10.023438 25.84375 10.023438 C 25.78125 10.023438 25.691406 9.953125 25.652344 9.875 C 25.417969 9.457031 24.355469 9.570312 23.808594 10.054688 C 23.484375 10.347656 23.199219 11.007812 23.191406 11.441406 C 23.191406 11.878906 23.046875 12.152344 22.957031 11.910156 Z M 22.957031 11.910156 "/>
<path style=" stroke:none;fill-rule:nonzero;fill:rgb(61.960784%,62.352941%,59.607843%);fill-opacity:1;" d="M 26.175781 11.523438 C 26.207031 11.3125 26.1875 11.046875 26.125 10.9375 C 26.046875 10.796875 26.046875 10.683594 26.125 10.550781 C 26.207031 10.421875 26.226562 10.421875 26.21875 10.53125 C 26.1875 10.855469 26.226562 11.046875 26.328125 10.988281 C 26.441406 10.917969 26.347656 11.515625 26.207031 11.746094 C 26.148438 11.847656 26.136719 11.765625 26.175781 11.523438 Z M 26.175781 11.523438 "/>
<path style=" stroke:none;fill-rule:nonzero;fill:rgb(86.27451%,74.509804%,46.666667%);fill-opacity:1;" d="M 24.636719 26.5625 C 24.507812 26.542969 24.40625 26.480469 24.40625 26.429688 C 24.40625 26.378906 24.546875 26.390625 24.707031 26.441406 C 24.980469 26.542969 25.132812 26.652344 24.941406 26.621094 C 24.890625 26.613281 24.757812 26.582031 24.636719 26.5625 Z M 24.636719 26.5625 "/>
<path style=" stroke:none;fill-rule:nonzero;fill:rgb(86.27451%,74.509804%,46.666667%);fill-opacity:1;" d="M 25.265625 26.21875 L 25.0625 26.125 L 25.265625 26.148438 C 25.378906 26.167969 25.527344 26.136719 25.589844 26.097656 C 25.679688 26.035156 25.703125 26.066406 25.660156 26.167969 C 25.589844 26.347656 25.550781 26.347656 25.265625 26.21875 Z M 25.265625 26.21875 "/>
<path style=" stroke:none;fill-rule:nonzero;fill:rgb(86.27451%,74.509804%,46.666667%);fill-opacity:1;" d="M 25.824219 26.054688 C 25.824219 25.996094 25.894531 25.894531 25.976562 25.824219 C 26.054688 25.761719 26.117188 25.671875 26.105469 25.640625 C 26.085938 25.457031 26.136719 25.316406 26.21875 25.316406 C 26.269531 25.316406 26.296875 25.378906 26.289062 25.449219 C 26.269531 25.621094 25.824219 26.1875 25.824219 26.054688 Z M 25.824219 26.054688 "/>
<path style=" stroke:none;fill-rule:nonzero;fill:rgb(86.27451%,74.509804%,46.666667%);fill-opacity:1;" d="M 17.703125 25.945312 C 17.609375 25.902344 17.4375 25.75 17.328125 25.601562 C 17.132812 25.367188 17.113281 25.195312 17.113281 24.082031 L 17.113281 22.835938 L 16.585938 22.867188 C 16.121094 22.886719 16 22.855469 15.695312 22.59375 L 15.339844 22.289062 L 15.339844 15.441406 L 17.144531 15.414062 L 18.9375 15.390625 L 18.9375 16.03125 C 18.9375 16.527344 18.976562 16.71875 19.117188 16.839844 C 19.371094 17.074219 19.484375 17.054688 19.808594 16.757812 L 20.082031 16.507812 L 19.847656 16.507812 C 19.714844 16.507812 19.636719 16.476562 19.664062 16.445312 C 19.777344 16.34375 20.101562 16.335938 20.234375 16.433594 C 20.3125 16.496094 20.355469 16.496094 20.355469 16.40625 C 20.355469 16.160156 21.652344 16.363281 22.097656 16.667969 C 22.347656 16.851562 22.449219 16.980469 22.390625 17.054688 C 22.339844 17.113281 22.339844 17.253906 22.390625 17.367188 C 22.5 17.652344 22.5 18.269531 22.378906 18.570312 C 22.035156 19.484375 20.789062 19.828125 20.011719 19.242188 C 19.554688 18.894531 19.332031 18.867188 19.078125 19.109375 C 18.917969 19.269531 18.90625 19.523438 18.96875 22.257812 C 19.027344 25.277344 19.019531 25.449219 18.671875 25.800781 C 18.511719 25.964844 17.945312 26.046875 17.703125 25.945312 Z M 17.703125 25.945312 "/>
<path style=" stroke:none;fill-rule:nonzero;fill:rgb(86.27451%,74.509804%,46.666667%);fill-opacity:1;" d="M 20.890625 25.902344 C 20.757812 25.84375 20.660156 25.75 20.660156 25.703125 C 20.660156 25.652344 20.585938 25.539062 20.507812 25.449219 C 20.386719 25.328125 20.355469 25.105469 20.375 24.464844 L 20.40625 23.644531 L 21.570312 23.636719 C 22.207031 23.636719 22.652344 23.644531 22.5625 23.664062 C 22.410156 23.707031 22.378906 23.828125 22.378906 24.3125 C 22.378906 24.933594 22.207031 25.507812 21.925781 25.78125 C 21.722656 25.984375 21.175781 26.054688 20.890625 25.902344 Z M 20.890625 25.902344 "/>
<path style=" stroke:none;fill-rule:nonzero;fill:rgb(86.27451%,74.509804%,46.666667%);fill-opacity:1;" d="M 26.125 25.113281 C 26.125 25.0625 26.15625 25.011719 26.207031 25.011719 C 26.289062 25.011719 26.289062 24.292969 26.207031 24.140625 C 26.148438 24.039062 26.289062 23.59375 26.378906 23.59375 C 26.421875 23.59375 26.410156 23.644531 26.378906 23.707031 C 26.339844 23.757812 26.371094 23.949219 26.441406 24.121094 C 26.542969 24.363281 26.542969 24.433594 26.429688 24.507812 C 26.328125 24.566406 26.347656 24.597656 26.492188 24.636719 C 26.652344 24.679688 26.664062 24.6875 26.511719 24.699219 C 26.410156 24.699219 26.328125 24.757812 26.328125 24.820312 C 26.328125 24.871094 26.371094 24.902344 26.410156 24.871094 C 26.460938 24.839844 26.5 24.882812 26.5 24.960938 C 26.5 25.042969 26.460938 25.082031 26.410156 25.054688 C 26.371094 25.023438 26.328125 25.054688 26.328125 25.105469 C 26.328125 25.164062 26.289062 25.214844 26.226562 25.214844 C 26.175781 25.214844 26.125 25.175781 26.125 25.113281 Z M 26.125 25.113281 "/>
<path style=" stroke:none;fill-rule:nonzero;fill:rgb(86.27451%,74.509804%,46.666667%);fill-opacity:1;" d="M 26.765625 23.535156 C 26.925781 23.453125 27.128906 23.402344 27.21875 23.421875 C 27.339844 23.453125 27.320312 23.472656 27.160156 23.484375 C 27.027344 23.484375 26.957031 23.542969 26.988281 23.59375 C 27.027344 23.65625 26.925781 23.695312 26.765625 23.695312 L 26.480469 23.6875 Z M 26.765625 23.535156 "/>
<path style=" stroke:none;fill-rule:nonzero;fill:rgb(86.27451%,74.509804%,46.666667%);fill-opacity:1;" d="M 13.4375 21.144531 C 13.304688 21.011719 13.144531 20.757812 13.082031 20.566406 C 12.941406 20.152344 12.921875 16.609375 13.054688 16.140625 C 13.253906 15.433594 13.773438 15.109375 14.328125 15.332031 C 14.9375 15.585938 14.988281 15.816406 14.988281 18.347656 C 14.976562 20.789062 14.945312 20.953125 14.441406 21.214844 C 14.035156 21.429688 13.722656 21.40625 13.4375 21.144531 Z M 13.4375 21.144531 "/>
<path style=" stroke:none;fill-rule:nonzero;fill:rgb(86.27451%,74.509804%,46.666667%);fill-opacity:1;" d="M 15.3125 14.550781 C 15.402344 13.507812 16.253906 12.210938 17.125 11.828125 C 17.285156 11.757812 17.417969 11.664062 17.417969 11.625 C 17.417969 11.585938 17.277344 11.320312 17.105469 11.027344 C 16.808594 10.53125 16.78125 10.226562 17.011719 10.226562 C 17.074219 10.226562 17.175781 10.371094 17.226562 10.53125 C 17.285156 10.703125 17.378906 10.835938 17.429688 10.835938 C 17.476562 10.835938 17.519531 10.894531 17.519531 10.96875 C 17.519531 11.027344 17.589844 11.167969 17.660156 11.269531 C 17.792969 11.441406 17.84375 11.441406 18.542969 11.292969 C 19.492188 11.097656 20.082031 11.097656 20.859375 11.300781 C 21.578125 11.484375 21.671875 11.441406 21.964844 10.785156 C 22.167969 10.328125 22.320312 10.175781 22.480469 10.277344 C 22.582031 10.339844 22.136719 11.339844 21.933594 11.464844 C 21.8125 11.542969 21.800781 11.535156 22.328125 11.878906 L 22.734375 12.152344 L 21.054688 12.152344 C 18.84375 12.152344 18.9375 12.082031 18.9375 13.875 L 18.9375 15.191406 L 15.261719 15.191406 Z M 17.976562 13.265625 C 17.976562 12.960938 17.621094 12.859375 17.417969 13.113281 C 17.316406 13.234375 17.316406 13.296875 17.417969 13.417969 C 17.621094 13.671875 17.976562 13.570312 17.976562 13.265625 Z M 17.976562 13.265625 "/>
<path style=" stroke:none;fill-rule:nonzero;fill:rgb(86.27451%,74.509804%,46.666667%);fill-opacity:1;" d="M 26.257812 12.183594 C 26.347656 12.160156 26.511719 12.160156 26.613281 12.183594 C 26.703125 12.210938 26.621094 12.234375 26.429688 12.234375 C 26.238281 12.234375 26.15625 12.210938 26.257812 12.183594 Z M 26.257812 12.183594 "/>
<path style=" stroke:none;fill-rule:nonzero;fill:rgb(86.27451%,74.509804%,46.666667%);fill-opacity:1;" d="M 26.175781 11.523438 C 26.207031 11.3125 26.1875 11.046875 26.125 10.925781 C 26.035156 10.765625 26.035156 10.683594 26.125 10.59375 C 26.1875 10.53125 26.238281 10.53125 26.226562 10.582031 C 26.175781 10.824219 26.238281 11.046875 26.328125 10.988281 C 26.441406 10.917969 26.347656 11.515625 26.207031 11.746094 C 26.148438 11.847656 26.136719 11.765625 26.175781 11.523438 Z M 26.175781 11.523438 "/>
<path style=" stroke:none;fill-rule:nonzero;fill:rgb(76.470588%,82.352941%,78.039216%);fill-opacity:1;" d="M 24.636719 26.5625 C 24.507812 26.542969 24.40625 26.480469 24.40625 26.429688 C 24.40625 26.378906 24.546875 26.390625 24.707031 26.441406 C 24.980469 26.542969 25.132812 26.652344 24.941406 26.621094 C 24.890625 26.613281 24.757812 26.582031 24.636719 26.5625 Z M 24.636719 26.5625 "/>
<path style=" stroke:none;fill-rule:nonzero;fill:rgb(76.470588%,82.352941%,78.039216%);fill-opacity:1;" d="M 25.265625 26.21875 L 25.0625 26.125 L 25.265625 26.148438 C 25.378906 26.167969 25.527344 26.136719 25.589844 26.097656 C 25.679688 26.035156 25.703125 26.066406 25.660156 26.167969 C 25.589844 26.347656 25.550781 26.347656 25.265625 26.21875 Z M 25.265625 26.21875 "/>
<path style=" stroke:none;fill-rule:nonzero;fill:rgb(76.470588%,82.352941%,78.039216%);fill-opacity:1;" d="M 25.824219 26.054688 C 25.824219 25.996094 25.894531 25.894531 25.976562 25.824219 C 26.054688 25.761719 26.117188 25.671875 26.105469 25.640625 C 26.085938 25.457031 26.136719 25.316406 26.21875 25.316406 C 26.269531 25.316406 26.296875 25.378906 26.289062 25.449219 C 26.269531 25.621094 25.824219 26.1875 25.824219 26.054688 Z M 25.824219 26.054688 "/>
<path style=" stroke:none;fill-rule:nonzero;fill:rgb(76.470588%,82.352941%,78.039216%);fill-opacity:1;" d="M 26.125 25.113281 C 26.125 25.0625 26.15625 25.011719 26.207031 25.011719 C 26.289062 25.011719 26.289062 24.292969 26.207031 24.140625 C 26.148438 24.039062 26.289062 23.59375 26.378906 23.59375 C 26.421875 23.59375 26.410156 23.644531 26.378906 23.707031 C 26.339844 23.757812 26.371094 23.949219 26.441406 24.121094 C 26.542969 24.363281 26.542969 24.433594 26.429688 24.507812 C 26.328125 24.566406 26.347656 24.597656 26.492188 24.636719 C 26.652344 24.679688 26.664062 24.6875 26.511719 24.699219 C 26.410156 24.699219 26.328125 24.757812 26.328125 24.820312 C 26.328125 24.871094 26.371094 24.902344 26.410156 24.871094 C 26.460938 24.839844 26.5 24.882812 26.5 24.960938 C 26.5 25.042969 26.460938 25.082031 26.410156 25.054688 C 26.371094 25.023438 26.328125 25.054688 26.328125 25.105469 C 26.328125 25.164062 26.289062 25.214844 26.226562 25.214844 C 26.175781 25.214844 26.125 25.175781 26.125 25.113281 Z M 26.125 25.113281 "/>
<path style=" stroke:none;fill-rule:nonzero;fill:rgb(76.470588%,82.352941%,78.039216%);fill-opacity:1;" d="M 26.765625 23.535156 C 26.925781 23.453125 27.128906 23.402344 27.21875 23.421875 C 27.339844 23.453125 27.320312 23.472656 27.160156 23.484375 C 27.027344 23.484375 26.957031 23.542969 26.988281 23.59375 C 27.027344 23.65625 26.925781 23.695312 26.765625 23.695312 L 26.480469 23.6875 Z M 26.765625 23.535156 "/>
<path style=" stroke:none;fill-rule:nonzero;fill:rgb(76.470588%,82.352941%,78.039216%);fill-opacity:1;" d="M 19.664062 16.457031 C 19.765625 16.34375 20.152344 16.3125 20.203125 16.414062 C 20.242188 16.464844 20.121094 16.507812 19.9375 16.507812 C 19.757812 16.507812 19.636719 16.484375 19.664062 16.457031 Z M 19.664062 16.457031 "/>
<path style=" stroke:none;fill-rule:nonzero;fill:rgb(76.470588%,82.352941%,78.039216%);fill-opacity:1;" d="M 20.484375 16.335938 C 20.578125 16.3125 20.738281 16.3125 20.839844 16.335938 C 20.933594 16.363281 20.851562 16.386719 20.660156 16.386719 C 20.464844 16.386719 20.386719 16.363281 20.484375 16.335938 Z M 20.484375 16.335938 "/>
<path style=" stroke:none;fill-rule:nonzero;fill:rgb(76.470588%,82.352941%,78.039216%);fill-opacity:1;" d="M 26.257812 12.183594 C 26.347656 12.160156 26.511719 12.160156 26.613281 12.183594 C 26.703125 12.210938 26.621094 12.234375 26.429688 12.234375 C 26.238281 12.234375 26.15625 12.210938 26.257812 12.183594 Z M 26.257812 12.183594 "/>
<path style=" stroke:none;fill-rule:nonzero;fill:rgb(76.470588%,82.352941%,78.039216%);fill-opacity:1;" d="M 26.175781 11.523438 C 26.207031 11.3125 26.1875 11.046875 26.125 10.925781 C 26.035156 10.765625 26.035156 10.683594 26.125 10.59375 C 26.1875 10.53125 26.238281 10.53125 26.226562 10.582031 C 26.175781 10.824219 26.238281 11.046875 26.328125 10.988281 C 26.441406 10.917969 26.347656 11.515625 26.207031 11.746094 C 26.148438 11.847656 26.136719 11.765625 26.175781 11.523438 Z M 26.175781 11.523438 "/>
</g>
</svg>
