<?xml version="1.0" encoding="UTF-8"?>
<svg xmlns="http://www.w3.org/2000/svg" xmlns:xlink="http://www.w3.org/1999/xlink" width="32px" height="32px" viewBox="0 0 32 24" version="1.1">
<g id="surface1">
<path d="M 30.25 1.519531 C 28.316406 -0.457031 25.199219 -0.511719 23.203125 1.394531 C 23.105469 1.488281 23.050781 1.621094 23.050781 1.757812 C 23.050781 1.894531 23.105469 2.027344 23.203125 2.121094 L 23.816406 2.761719 C 23.984375 2.933594 24.253906 2.953125 24.449219 2.804688 C 25.664062 1.808594 27.433594 1.976562 28.453125 3.179688 C 29.476562 4.378906 29.390625 6.195312 28.253906 7.289062 C 24.230469 11.402344 18.859375 -0.128906 6.667969 5.8125 C 6.253906 6.015625 5.9375 6.390625 5.804688 6.839844 C 5.667969 7.292969 5.722656 7.78125 5.957031 8.1875 L 8.050781 11.882812 C 8.5 12.6875 9.5 12.964844 10.289062 12.511719 L 10.335938 12.484375 L 10.296875 12.511719 L 11.214844 11.988281 C 12.25 11.332031 13.226562 10.585938 14.136719 9.761719 C 14.320312 9.589844 14.601562 9.578125 14.800781 9.742188 C 14.902344 9.828125 14.964844 9.960938 14.96875 10.097656 C 14.972656 10.238281 14.917969 10.371094 14.820312 10.46875 C 13.863281 11.347656 12.832031 12.144531 11.738281 12.839844 L 11.707031 12.839844 L 10.777344 13.371094 C 10.386719 13.59375 9.945312 13.710938 9.496094 13.710938 C 8.550781 13.714844 7.671875 13.199219 7.199219 12.363281 L 5.21875 8.871094 C 1.433594 11.625 -0.886719 16.914062 0.371094 23.613281 C 0.414062 23.847656 0.609375 24.015625 0.84375 24.019531 L 3.074219 24.019531 C 3.328125 24.023438 3.542969 23.828125 3.566406 23.566406 C 3.785156 21.890625 5.183594 20.632812 6.839844 20.632812 C 8.492188 20.632812 9.894531 21.890625 10.109375 23.566406 C 10.140625 23.8125 10.34375 24 10.585938 24 L 12.765625 24 C 13.007812 24 13.214844 23.8125 13.242188 23.566406 C 13.460938 21.890625 14.859375 20.632812 16.515625 20.632812 C 18.171875 20.632812 19.570312 21.890625 19.785156 23.566406 C 19.816406 23.8125 20.019531 24 20.261719 24 L 22.429688 24 C 22.695312 24 22.910156 23.785156 22.914062 23.511719 C 22.960938 20.390625 23.785156 16.800781 26.136719 15 C 34.269531 8.777344 32.132812 3.445312 30.25 1.519531 Z M 21.953125 10.917969 L 20.402344 10.121094 C 20.402344 9.652344 20.71875 9.246094 21.167969 9.148438 C 21.617188 9.046875 22.074219 9.28125 22.261719 9.710938 C 22.449219 10.136719 22.324219 10.640625 21.953125 10.921875 Z M 21.953125 10.917969 "/>
</g>
</svg>
